<svg xmlns="http://www.w3.org/2000/svg" viewBox="0 0 32 32">
  <defs>
    <linearGradient id="g" x1="0" y1="0" x2="1" y2="1">
      <stop offset="0%" stop-color="#3b82f6"/>
      <stop offset="55%" stop-color="#8b5cf6"/>
      <stop offset="100%" stop-color="#d946ef"/>
    </linearGradient>
  </defs>
  <rect x="0" y="0" width="32" height="32" rx="7" fill="url(#g)"/>
  <!-- Sparkle: a four-pointed star centered at (16,16), with a tiny accent star -->
  <path
    d="M16 5
       C 16.4 10.4 17.6 11.6 23 12
       C 17.6 12.4 16.4 13.6 16 19
       C 15.6 13.6 14.4 12.4 9 12
       C 14.4 11.6 15.6 10.4 16 5 Z"
    fill="#ffffff"/>
  <path
    d="M23 19
       C 23.2 21.4 23.6 21.8 26 22
       C 23.6 22.2 23.2 22.6 23 25
       C 22.8 22.6 22.4 22.2 20 22
       C 22.4 21.8 22.8 21.4 23 19 Z"
    fill="#ffffff" opacity="0.85"/>
</svg>
